# xmcd
#
# Track frame offsets:
#	150
#	27654
#	53417
#	77844
#	97140
#	137087
#	147987
#
# Disc length: 2413 seconds
#
# Revision: 1
# Processed by: cddbd v1.5.2PL0 Copyright (c) Steve Scherf et al.
# Submitted via: audiograbber 1.83.01
#
DISCID=5f096b07
DTITLE=Grateful Dead - 79-11-10 Crisler Arena, Ann Arbor MI
DYEAR=1900
DGENRE=
TTITLE0=Passenger
TTITLE1=Deal
TTITLE2=Alabama Getaway
TTITLE3=Promised Land
TTITLE4=Ship Of Fools
TTITLE5=Tuning
TTITLE6=Samson and Delilah
EXTD=
EXTT0=
EXTT1=
EXTT2=
EXTT3=
EXTT4=
EXTT5=
EXTT6=
PLAYORDER=
